<svg width="236" height="135" viewBox="0 0 236 135" fill="none" xmlns="http://www.w3.org/2000/svg">
<g clip-path="url(#clip0_102_24)">
<g filter="url(#filter0_d_102_24)">
<path fill-rule="evenodd" clip-rule="evenodd" d="M118.93 2.87234C87.9825 2.87234 62.0685 24.1175 55.2772 52.635L52.4836 51.9694C59.581 22.1665 86.644 0 118.93 0C156.614 0 187.192 30.205 187.192 67.5H184.32C184.32 31.8229 155.06 2.87234 118.93 2.87234ZM55.0565 81.405C57.09 90.5718 61.0929 99.0119 66.607 106.269C78.5368 121.97 97.5305 132.128 118.93 132.128C140.329 132.128 159.323 121.97 171.253 106.269L173.539 108.007C161.085 124.399 141.257 135 118.93 135C96.6031 135 76.7751 124.399 64.3205 108.007C58.5623 100.429 54.3787 91.6098 52.2529 82.0271L55.0565 81.405Z" fill="white"/>
</g>
<g filter="url(#filter1_d_102_24)">
<path d="M183.46 82.7234C191.864 82.7234 198.676 75.9077 198.676 67.5C198.676 59.0924 191.864 52.2766 183.46 52.2766C175.056 52.2766 168.243 59.0924 168.243 67.5C168.243 75.9077 175.056 82.7234 183.46 82.7234Z" fill="#2788EC"/>
</g>
<g filter="url(#filter2_d_102_24)">
<path fill-rule="evenodd" clip-rule="evenodd" d="M53.1145 78.7021C59.2987 78.7021 64.3116 73.687 64.3116 67.5C64.3116 61.313 59.2987 56.2979 53.1145 56.2979C46.9305 56.2979 41.9174 61.313 41.9174 67.5C41.9174 73.687 46.9305 78.7021 53.1145 78.7021ZM53.1145 82.7234C61.5186 82.7234 68.331 75.9079 68.331 67.5C68.331 59.0921 61.5186 52.2766 53.1145 52.2766C44.7107 52.2766 37.8979 59.0921 37.8979 67.5C37.8979 75.9079 44.7107 82.7234 53.1145 82.7234Z" fill="white"/>
</g>
<g filter="url(#filter3_d_102_24)">
<path d="M105.005 91.9867H101.342C100.241 91.9867 99.4704 92.1855 99.0294 92.583C98.4696 93.092 98.1899 94.072 98.1899 95.5243C98.1899 96.976 98.4696 97.9842 99.0294 98.5483C99.498 99.0199 100.269 99.2555 101.342 99.2555H105.005V100.393H106.409V99.2555H110.057C111.131 99.2555 111.901 99.0199 112.37 98.5483C112.93 97.9842 113.21 96.976 113.21 95.5243C113.21 94.0904 112.93 93.115 112.37 92.5968C111.929 92.1901 111.158 91.9867 110.057 91.9867H106.409V90.9044H105.005V91.9867ZM105.005 93.2632V97.9658H101.342C100.718 97.9658 100.269 97.7854 99.9935 97.4246C99.7271 97.0547 99.5939 96.421 99.5939 95.5243C99.5939 94.6546 99.7271 94.0628 99.9935 93.7486C100.259 93.4246 100.709 93.2632 101.342 93.2632H105.005ZM106.409 97.9658V93.2632H110.057C110.7 93.2632 111.154 93.42 111.42 93.7348C111.686 94.0491 111.819 94.6454 111.819 95.5243C111.819 96.421 111.682 97.0547 111.406 97.4246C111.14 97.7854 110.69 97.9658 110.057 97.9658H106.409Z" fill="white"/>
</g>
<g filter="url(#filter4_d_102_24)">
<path d="M127.055 90.9044H125.004L116.923 99.2279V90.9044H115.519V100.393H117.639L125.652 92.1533V100.393H127.055V90.9044Z" fill="white"/>
</g>
<g filter="url(#filter5_d_102_24)">
<path d="M128.899 90.9044H138.742V92.1809H134.53V100.393H133.125V92.1809H128.899V90.9044Z" fill="white"/>
</g>
<g filter="url(#filter6_d_102_24)">
<path d="M140.283 90.9044H141.687V94.9274H149.796V90.9044H151.2V100.393H149.796V96.2039H141.687V100.393H140.283V90.9044Z" fill="white"/>
</g>
<g filter="url(#filter7_d_102_24)">
<path d="M153.2 90.9044H162.218V92.1809H154.604V94.9412H161.956V96.2177H154.604V99.117H162.218V100.393H153.2V90.9044Z" fill="white"/>
</g>
<g filter="url(#filter8_d_102_24)">
<path d="M165.48 95.6628C165.48 97.3925 165.663 98.4236 166.03 98.7563C166.397 99.0895 167.526 99.2555 169.417 99.2555C171.17 99.2555 172.239 99.1584 172.624 98.9642C173.074 98.7333 173.299 98.1088 173.299 97.0915H174.703C174.703 98.5989 174.391 99.5519 173.767 99.9494C173.143 100.338 171.693 100.532 169.417 100.532C167.095 100.532 165.627 100.254 165.012 99.6995C164.397 99.1446 164.089 97.7992 164.089 95.6628C164.089 93.5079 164.392 92.1533 164.998 91.5984C165.604 91.0435 167.076 90.766 169.417 90.766C171.711 90.766 173.166 90.9602 173.781 91.3485C174.396 91.7368 174.703 92.6893 174.703 94.2065H173.299C173.299 93.1891 173.092 92.5784 172.68 92.3751C172.267 92.1625 171.179 92.0562 169.417 92.0562C167.517 92.0562 166.383 92.2228 166.016 92.5555C165.659 92.8795 165.48 93.9152 165.48 95.6628Z" fill="white"/>
</g>
<g filter="url(#filter9_d_102_24)">
<path d="M176.636 94.9694H181.371V96.2452H176.636V94.9694Z" fill="white"/>
</g>
<g filter="url(#filter10_d_102_24)">
<path d="M183.457 100.393V90.9044H184.861V94.747H186.265L191.965 90.9044H194.374L187.766 95.3715L194.801 100.393H192.488L186.265 96.0235H184.861V100.393H183.457Z" fill="white"/>
</g>
<g filter="url(#filter11_d_102_24)">
<path d="M196.15 99.117H196.701C197.022 99.117 197.27 98.8487 197.444 98.3122C197.655 97.6648 197.761 96.5876 197.761 95.0802V94.8585V94.6643V94.5115C197.761 94.3449 197.756 94.1829 197.747 94.0261C197.747 93.8595 197.747 93.7021 197.747 93.5544V90.9044H207.37V100.393H205.966V92.1809H199.151V93.9704V94.6086C199.151 95.4869 199.124 96.2544 199.069 96.9111C198.986 97.9376 198.839 98.7333 198.628 99.2974C198.362 100.028 197.99 100.393 197.513 100.393H196.15V99.117Z" fill="white"/>
</g>
<g filter="url(#filter12_d_102_24)">
<path d="M214.594 99.117C214.98 99.117 215.301 99.0613 215.558 98.9504C215.824 98.8395 216.035 98.6408 216.192 98.3541L209.335 90.9044H211.263L216.962 97.2167L220.528 90.9044H222.125L217.692 98.7149C217.361 99.2882 216.948 99.7133 216.453 99.9908C215.957 100.259 215.319 100.393 214.539 100.393H211.455V99.117H214.594Z" fill="white"/>
</g>
<g filter="url(#filter13_d_102_24)">
<path d="M223.718 90.9044H233.328V92.1809H225.122V94.8723H231.345C232.226 94.8723 232.905 95.0572 233.383 95.4272C233.979 95.8897 234.277 96.6244 234.277 97.6326C234.277 98.65 233.984 99.3853 233.397 99.8385C232.91 100.209 232.226 100.393 231.345 100.393H223.718V90.9044ZM232.887 97.6326C232.887 97.161 232.74 96.7956 232.446 96.5365C232.153 96.278 231.785 96.1482 231.345 96.1482H225.122V99.117H231.331C231.772 99.117 232.139 98.9878 232.432 98.7287C232.736 98.4696 232.887 98.1042 232.887 97.6326Z" fill="white"/>
</g>
<g filter="url(#filter14_d_102_24)">
<path d="M0 82.2909V52.7091H4.4298V64.6892H8.85959L26.8393 52.7091H34.4395L13.5934 66.6349L35.7858 82.2909H28.4897L8.85959 68.6679H4.4298V82.2909H0Z" fill="white"/>
</g>
<g filter="url(#filter15_d_102_24)">
<path d="M78.3717 67.5431C78.3717 72.9351 78.9511 76.1498 80.1093 77.1878C81.2675 78.2253 84.8287 78.7447 90.793 78.7447C96.3227 78.7447 99.6956 78.4419 100.912 77.8364C102.331 77.1155 103.04 75.1692 103.04 71.9981H107.47C107.47 76.6972 106.485 79.6672 104.517 80.9069C102.548 82.1179 97.9729 82.7234 90.793 82.7234C83.4678 82.7234 78.8351 81.8583 76.8954 80.1285C74.9558 78.3988 73.9854 74.2035 73.9854 67.5431C73.9854 60.8253 74.9408 56.6014 76.8518 54.8715C78.7628 53.1416 83.4098 52.2766 90.793 52.2766C98.0309 52.2766 102.62 52.8821 104.56 54.093C106.5 55.304 107.47 58.2735 107.47 63.0019H103.04C103.04 59.8309 102.389 57.9277 101.086 57.2934C99.7828 56.6303 96.3519 56.2987 90.793 56.2987C84.7994 56.2987 81.2238 56.8177 80.0657 57.8558C78.9368 58.8646 78.3717 62.0937 78.3717 67.5431Z" fill="white"/>
</g>
<g filter="url(#filter16_d_102_24)">
<path d="M122.869 52.7091L138.243 77.0144L153.617 52.7091H161.521V82.2909H157.134V56.688H156.266L139.632 82.2909H136.853L120.22 56.688H119.394V69.4894V82.2909H114.964V52.7091H122.869Z" fill="white"/>
</g>
<g filter="url(#filter17_d_102_24)">
<path d="M206.902 67.5431C206.902 72.9351 207.481 76.1498 208.639 77.1878C209.798 78.2253 213.359 78.7447 219.323 78.7447C224.853 78.7447 228.226 78.4419 229.442 77.8364C230.861 77.1155 231.57 75.1692 231.57 71.9981H236C236 76.6972 235.016 79.6672 233.047 80.9069C231.078 82.1179 226.504 82.7234 219.323 82.7234C211.998 82.7234 207.365 81.8583 205.426 80.1285C203.486 78.3988 202.516 74.2035 202.516 67.5431C202.516 60.8253 203.472 56.6014 205.382 54.8715C207.293 53.1416 211.94 52.2766 219.323 52.2766C226.561 52.2766 231.15 52.8821 233.09 54.093C235.03 55.304 236 58.2735 236 63.0019H231.57C231.57 59.8309 230.919 57.9277 229.616 57.2934C228.313 56.6303 224.882 56.2987 219.323 56.2987C213.33 56.2987 209.754 56.8177 208.596 57.8558C207.467 58.8646 206.902 62.0937 206.902 67.5431Z" fill="white"/>
</g>
</g>
<defs>
<filter id="filter0_d_102_24" x="3.25293" y="-49" width="232.939" height="233" filterUnits="userSpaceOnUse" color-interpolation-filters="sRGB">
<feFlood flood-opacity="0" result="BackgroundImageFix"/>
<feColorMatrix in="SourceAlpha" type="matrix" values="0 0 0 0 0 0 0 0 0 0 0 0 0 0 0 0 0 0 127 0" result="hardAlpha"/>
<feOffset/>
<feGaussianBlur stdDeviation="24.5"/>
<feComposite in2="hardAlpha" operator="out"/>
<feColorMatrix type="matrix" values="0 0 0 0 0 0 0 0 0 0 0 0 0 0 0 0 0 0 0.57 0"/>
<feBlend mode="normal" in2="BackgroundImageFix" result="effect1_dropShadow_102_24"/>
<feBlend mode="normal" in="SourceGraphic" in2="effect1_dropShadow_102_24" result="shape"/>
</filter>
<filter id="filter1_d_102_24" x="119.243" y="3.27661" width="128.433" height="128.447" filterUnits="userSpaceOnUse" color-interpolation-filters="sRGB">
<feFlood flood-opacity="0" result="BackgroundImageFix"/>
<feColorMatrix in="SourceAlpha" type="matrix" values="0 0 0 0 0 0 0 0 0 0 0 0 0 0 0 0 0 0 127 0" result="hardAlpha"/>
<feOffset/>
<feGaussianBlur stdDeviation="24.5"/>
<feComposite in2="hardAlpha" operator="out"/>
<feColorMatrix type="matrix" values="0 0 0 0 0 0 0 0 0 0 0 0 0 0 0 0 0 0 0.57 0"/>
<feBlend mode="normal" in2="BackgroundImageFix" result="effect1_dropShadow_102_24"/>
<feBlend mode="normal" in="SourceGraphic" in2="effect1_dropShadow_102_24" result="shape"/>
</filter>
<filter id="filter2_d_102_24" x="-11.1021" y="3.27661" width="128.433" height="128.447" filterUnits="userSpaceOnUse" color-interpolation-filters="sRGB">
<feFlood flood-opacity="0" result="BackgroundImageFix"/>
<feColorMatrix in="SourceAlpha" type="matrix" values="0 0 0 0 0 0 0 0 0 0 0 0 0 0 0 0 0 0 127 0" result="hardAlpha"/>
<feOffset/>
<feGaussianBlur stdDeviation="24.5"/>
<feComposite in2="hardAlpha" operator="out"/>
<feColorMatrix type="matrix" values="0 0 0 0 0 0 0 0 0 0 0 0 0 0 0 0 0 0 0.57 0"/>
<feBlend mode="normal" in2="BackgroundImageFix" result="effect1_dropShadow_102_24"/>
<feBlend mode="normal" in="SourceGraphic" in2="effect1_dropShadow_102_24" result="shape"/>
</filter>
<filter id="filter3_d_102_24" x="49.1899" y="41.9044" width="113.02" height="107.489" filterUnits="userSpaceOnUse" color-interpolation-filters="sRGB">
<feFlood flood-opacity="0" result="BackgroundImageFix"/>
<feColorMatrix in="SourceAlpha" type="matrix" values="0 0 0 0 0 0 0 0 0 0 0 0 0 0 0 0 0 0 127 0" result="hardAlpha"/>
<feOffset/>
<feGaussianBlur stdDeviation="24.5"/>
<feComposite in2="hardAlpha" operator="out"/>
<feColorMatrix type="matrix" values="0 0 0 0 0 0 0 0 0 0 0 0 0 0 0 0 0 0 0.57 0"/>
<feBlend mode="normal" in2="BackgroundImageFix" result="effect1_dropShadow_102_24"/>
<feBlend mode="normal" in="SourceGraphic" in2="effect1_dropShadow_102_24" result="shape"/>
</filter>
<filter id="filter4_d_102_24" x="66.519" y="41.9044" width="109.537" height="107.489" filterUnits="userSpaceOnUse" color-interpolation-filters="sRGB">
<feFlood flood-opacity="0" result="BackgroundImageFix"/>
<feColorMatrix in="SourceAlpha" type="matrix" values="0 0 0 0 0 0 0 0 0 0 0 0 0 0 0 0 0 0 127 0" result="hardAlpha"/>
<feOffset/>
<feGaussianBlur stdDeviation="24.5"/>
<feComposite in2="hardAlpha" operator="out"/>
<feColorMatrix type="matrix" values="0 0 0 0 0 0 0 0 0 0 0 0 0 0 0 0 0 0 0.57 0"/>
<feBlend mode="normal" in2="BackgroundImageFix" result="effect1_dropShadow_102_24"/>
<feBlend mode="normal" in="SourceGraphic" in2="effect1_dropShadow_102_24" result="shape"/>
</filter>
<filter id="filter5_d_102_24" x="79.8989" y="41.9044" width="107.843" height="107.489" filterUnits="userSpaceOnUse" color-interpolation-filters="sRGB">
<feFlood flood-opacity="0" result="BackgroundImageFix"/>
<feColorMatrix in="SourceAlpha" type="matrix" values="0 0 0 0 0 0 0 0 0 0 0 0 0 0 0 0 0 0 127 0" result="hardAlpha"/>
<feOffset/>
<feGaussianBlur stdDeviation="24.5"/>
<feComposite in2="hardAlpha" operator="out"/>
<feColorMatrix type="matrix" values="0 0 0 0 0 0 0 0 0 0 0 0 0 0 0 0 0 0 0.57 0"/>
<feBlend mode="normal" in2="BackgroundImageFix" result="effect1_dropShadow_102_24"/>
<feBlend mode="normal" in="SourceGraphic" in2="effect1_dropShadow_102_24" result="shape"/>
</filter>
<filter id="filter6_d_102_24" x="91.2827" y="41.9044" width="108.917" height="107.489" filterUnits="userSpaceOnUse" color-interpolation-filters="sRGB">
<feFlood flood-opacity="0" result="BackgroundImageFix"/>
<feColorMatrix in="SourceAlpha" type="matrix" values="0 0 0 0 0 0 0 0 0 0 0 0 0 0 0 0 0 0 127 0" result="hardAlpha"/>
<feOffset/>
<feGaussianBlur stdDeviation="24.5"/>
<feComposite in2="hardAlpha" operator="out"/>
<feColorMatrix type="matrix" values="0 0 0 0 0 0 0 0 0 0 0 0 0 0 0 0 0 0 0.57 0"/>
<feBlend mode="normal" in2="BackgroundImageFix" result="effect1_dropShadow_102_24"/>
<feBlend mode="normal" in="SourceGraphic" in2="effect1_dropShadow_102_24" result="shape"/>
</filter>
<filter id="filter7_d_102_24" x="104.2" y="41.9044" width="107.018" height="107.489" filterUnits="userSpaceOnUse" color-interpolation-filters="sRGB">
<feFlood flood-opacity="0" result="BackgroundImageFix"/>
<feColorMatrix in="SourceAlpha" type="matrix" values="0 0 0 0 0 0 0 0 0 0 0 0 0 0 0 0 0 0 127 0" result="hardAlpha"/>
<feOffset/>
<feGaussianBlur stdDeviation="24.5"/>
<feComposite in2="hardAlpha" operator="out"/>
<feColorMatrix type="matrix" values="0 0 0 0 0 0 0 0 0 0 0 0 0 0 0 0 0 0 0.57 0"/>
<feBlend mode="normal" in2="BackgroundImageFix" result="effect1_dropShadow_102_24"/>
<feBlend mode="normal" in="SourceGraphic" in2="effect1_dropShadow_102_24" result="shape"/>
</filter>
<filter id="filter8_d_102_24" x="115.089" y="41.766" width="108.614" height="107.766" filterUnits="userSpaceOnUse" color-interpolation-filters="sRGB">
<feFlood flood-opacity="0" result="BackgroundImageFix"/>
<feColorMatrix in="SourceAlpha" type="matrix" values="0 0 0 0 0 0 0 0 0 0 0 0 0 0 0 0 0 0 127 0" result="hardAlpha"/>
<feOffset/>
<feGaussianBlur stdDeviation="24.5"/>
<feComposite in2="hardAlpha" operator="out"/>
<feColorMatrix type="matrix" values="0 0 0 0 0 0 0 0 0 0 0 0 0 0 0 0 0 0 0.57 0"/>
<feBlend mode="normal" in2="BackgroundImageFix" result="effect1_dropShadow_102_24"/>
<feBlend mode="normal" in="SourceGraphic" in2="effect1_dropShadow_102_24" result="shape"/>
</filter>
<filter id="filter9_d_102_24" x="127.636" y="45.9694" width="102.735" height="99.2759" filterUnits="userSpaceOnUse" color-interpolation-filters="sRGB">
<feFlood flood-opacity="0" result="BackgroundImageFix"/>
<feColorMatrix in="SourceAlpha" type="matrix" values="0 0 0 0 0 0 0 0 0 0 0 0 0 0 0 0 0 0 127 0" result="hardAlpha"/>
<feOffset/>
<feGaussianBlur stdDeviation="24.5"/>
<feComposite in2="hardAlpha" operator="out"/>
<feColorMatrix type="matrix" values="0 0 0 0 0 0 0 0 0 0 0 0 0 0 0 0 0 0 0.57 0"/>
<feBlend mode="normal" in2="BackgroundImageFix" result="effect1_dropShadow_102_24"/>
<feBlend mode="normal" in="SourceGraphic" in2="effect1_dropShadow_102_24" result="shape"/>
</filter>
<filter id="filter10_d_102_24" x="134.457" y="41.9044" width="109.344" height="107.489" filterUnits="userSpaceOnUse" color-interpolation-filters="sRGB">
<feFlood flood-opacity="0" result="BackgroundImageFix"/>
<feColorMatrix in="SourceAlpha" type="matrix" values="0 0 0 0 0 0 0 0 0 0 0 0 0 0 0 0 0 0 127 0" result="hardAlpha"/>
<feOffset/>
<feGaussianBlur stdDeviation="24.5"/>
<feComposite in2="hardAlpha" operator="out"/>
<feColorMatrix type="matrix" values="0 0 0 0 0 0 0 0 0 0 0 0 0 0 0 0 0 0 0.57 0"/>
<feBlend mode="normal" in2="BackgroundImageFix" result="effect1_dropShadow_102_24"/>
<feBlend mode="normal" in="SourceGraphic" in2="effect1_dropShadow_102_24" result="shape"/>
</filter>
<filter id="filter11_d_102_24" x="147.15" y="41.9044" width="109.22" height="107.489" filterUnits="userSpaceOnUse" color-interpolation-filters="sRGB">
<feFlood flood-opacity="0" result="BackgroundImageFix"/>
<feColorMatrix in="SourceAlpha" type="matrix" values="0 0 0 0 0 0 0 0 0 0 0 0 0 0 0 0 0 0 127 0" result="hardAlpha"/>
<feOffset/>
<feGaussianBlur stdDeviation="24.5"/>
<feComposite in2="hardAlpha" operator="out"/>
<feColorMatrix type="matrix" values="0 0 0 0 0 0 0 0 0 0 0 0 0 0 0 0 0 0 0.57 0"/>
<feBlend mode="normal" in2="BackgroundImageFix" result="effect1_dropShadow_102_24"/>
<feBlend mode="normal" in="SourceGraphic" in2="effect1_dropShadow_102_24" result="shape"/>
</filter>
<filter id="filter12_d_102_24" x="160.335" y="41.9044" width="110.79" height="107.489" filterUnits="userSpaceOnUse" color-interpolation-filters="sRGB">
<feFlood flood-opacity="0" result="BackgroundImageFix"/>
<feColorMatrix in="SourceAlpha" type="matrix" values="0 0 0 0 0 0 0 0 0 0 0 0 0 0 0 0 0 0 127 0" result="hardAlpha"/>
<feOffset/>
<feGaussianBlur stdDeviation="24.5"/>
<feComposite in2="hardAlpha" operator="out"/>
<feColorMatrix type="matrix" values="0 0 0 0 0 0 0 0 0 0 0 0 0 0 0 0 0 0 0.57 0"/>
<feBlend mode="normal" in2="BackgroundImageFix" result="effect1_dropShadow_102_24"/>
<feBlend mode="normal" in="SourceGraphic" in2="effect1_dropShadow_102_24" result="shape"/>
</filter>
<filter id="filter13_d_102_24" x="174.718" y="41.9044" width="108.559" height="107.489" filterUnits="userSpaceOnUse" color-interpolation-filters="sRGB">
<feFlood flood-opacity="0" result="BackgroundImageFix"/>
<feColorMatrix in="SourceAlpha" type="matrix" values="0 0 0 0 0 0 0 0 0 0 0 0 0 0 0 0 0 0 127 0" result="hardAlpha"/>
<feOffset/>
<feGaussianBlur stdDeviation="24.5"/>
<feComposite in2="hardAlpha" operator="out"/>
<feColorMatrix type="matrix" values="0 0 0 0 0 0 0 0 0 0 0 0 0 0 0 0 0 0 0.57 0"/>
<feBlend mode="normal" in2="BackgroundImageFix" result="effect1_dropShadow_102_24"/>
<feBlend mode="normal" in="SourceGraphic" in2="effect1_dropShadow_102_24" result="shape"/>
</filter>
<filter id="filter14_d_102_24" x="-49" y="3.70911" width="133.786" height="127.582" filterUnits="userSpaceOnUse" color-interpolation-filters="sRGB">
<feFlood flood-opacity="0" result="BackgroundImageFix"/>
<feColorMatrix in="SourceAlpha" type="matrix" values="0 0 0 0 0 0 0 0 0 0 0 0 0 0 0 0 0 0 127 0" result="hardAlpha"/>
<feOffset/>
<feGaussianBlur stdDeviation="24.5"/>
<feComposite in2="hardAlpha" operator="out"/>
<feColorMatrix type="matrix" values="0 0 0 0 0 0 0 0 0 0 0 0 0 0 0 0 0 0 0.57 0"/>
<feBlend mode="normal" in2="BackgroundImageFix" result="effect1_dropShadow_102_24"/>
<feBlend mode="normal" in="SourceGraphic" in2="effect1_dropShadow_102_24" result="shape"/>
</filter>
<filter id="filter15_d_102_24" x="24.9854" y="3.27661" width="131.484" height="128.447" filterUnits="userSpaceOnUse" color-interpolation-filters="sRGB">
<feFlood flood-opacity="0" result="BackgroundImageFix"/>
<feColorMatrix in="SourceAlpha" type="matrix" values="0 0 0 0 0 0 0 0 0 0 0 0 0 0 0 0 0 0 127 0" result="hardAlpha"/>
<feOffset/>
<feGaussianBlur stdDeviation="24.5"/>
<feComposite in2="hardAlpha" operator="out"/>
<feColorMatrix type="matrix" values="0 0 0 0 0 0 0 0 0 0 0 0 0 0 0 0 0 0 0.57 0"/>
<feBlend mode="normal" in2="BackgroundImageFix" result="effect1_dropShadow_102_24"/>
<feBlend mode="normal" in="SourceGraphic" in2="effect1_dropShadow_102_24" result="shape"/>
</filter>
<filter id="filter16_d_102_24" x="65.9644" y="3.70911" width="144.556" height="127.582" filterUnits="userSpaceOnUse" color-interpolation-filters="sRGB">
<feFlood flood-opacity="0" result="BackgroundImageFix"/>
<feColorMatrix in="SourceAlpha" type="matrix" values="0 0 0 0 0 0 0 0 0 0 0 0 0 0 0 0 0 0 127 0" result="hardAlpha"/>
<feOffset/>
<feGaussianBlur stdDeviation="24.5"/>
<feComposite in2="hardAlpha" operator="out"/>
<feColorMatrix type="matrix" values="0 0 0 0 0 0 0 0 0 0 0 0 0 0 0 0 0 0 0.57 0"/>
<feBlend mode="normal" in2="BackgroundImageFix" result="effect1_dropShadow_102_24"/>
<feBlend mode="normal" in="SourceGraphic" in2="effect1_dropShadow_102_24" result="shape"/>
</filter>
<filter id="filter17_d_102_24" x="153.516" y="3.27661" width="131.484" height="128.447" filterUnits="userSpaceOnUse" color-interpolation-filters="sRGB">
<feFlood flood-opacity="0" result="BackgroundImageFix"/>
<feColorMatrix in="SourceAlpha" type="matrix" values="0 0 0 0 0 0 0 0 0 0 0 0 0 0 0 0 0 0 127 0" result="hardAlpha"/>
<feOffset/>
<feGaussianBlur stdDeviation="24.5"/>
<feComposite in2="hardAlpha" operator="out"/>
<feColorMatrix type="matrix" values="0 0 0 0 0 0 0 0 0 0 0 0 0 0 0 0 0 0 0.57 0"/>
<feBlend mode="normal" in2="BackgroundImageFix" result="effect1_dropShadow_102_24"/>
<feBlend mode="normal" in="SourceGraphic" in2="effect1_dropShadow_102_24" result="shape"/>
</filter>
<clipPath id="clip0_102_24">
<rect width="236" height="135" fill="white"/>
</clipPath>
</defs>
</svg>
